<?xml version="1.0" encoding="utf-8"?>
<!-- Generator: Adobe Illustrator 24.0.3, SVG Export Plug-In . SVG Version: 6.00 Build 0)  -->
<svg version="1.1" id="error" xmlns="http://www.w3.org/2000/svg" xmlns:xlink="http://www.w3.org/1999/xlink" x="0px" y="0px"
	 viewBox="0 0 148 148" style="enable-background:new 0 0 148 148;" xml:space="preserve">
<style type="text/css">
	.st0{fill:#FF0000;}
</style>
<g id="Elipse_7">
	<g>
		<path class="st0" d="M74,147.8c-40.7,0-73.8-33.1-73.8-73.8S33.3,0.2,74,0.2s73.8,33.1,73.8,73.8S114.7,147.8,74,147.8z M74,1.6
			C34.1,1.6,1.6,34.1,1.6,74c0,39.9,32.5,72.4,72.4,72.4c39.9,0,72.4-32.5,72.4-72.4C146.4,34.1,113.9,1.6,74,1.6z"/>
	</g>
</g>
<g id="Grupo_2" transform="translate(-913.402 407.461) rotate(-45)">
	<polygon class="st0" points="937.9,464.9 937.9,484.8 933,484.8 933,464.9 913,464.9 913,460 933,460 933,440 937.9,440 937.9,460 
		957.8,460 957.8,464.8 	"/>
</g>
</svg>
