<svg xmlns="http://www.w3.org/2000/svg" width="26.271" height="36.21" viewBox="0 0 26.271 36.21">
  <g id="Capa_2" data-name="Capa 2" transform="translate(0.001 -0.004)">
    <g id="Capa_1" data-name="Capa 1" transform="translate(-0.001 0.004)">
      <path id="Trazado_14" data-name="Trazado 14" d="M37.706,4.3,34.688,7.323A.755.755,0,1,1,33.62,6.256l1.73-1.73H22.106a.771.771,0,0,1-.778-.74.755.755,0,0,1,.755-.77H35.35L33.621,1.287A.755.755,0,0,1,33.674.171.768.768,0,0,1,34.7.236l3,3,.193.189a.473.473,0,0,1,.011.667Z" transform="translate(-19.819 -0.004)" fill="#fff"/>
      <path id="Trazado_15" data-name="Trazado 15" d="M25.421,100.114a2.883,2.883,0,0,0-3.781-.257A2.889,2.889,0,0,0,16.823,98.6L6.55,108.874l-.957-6.093a3.38,3.38,0,0,0-3.33-2.888A2.263,2.263,0,0,0,0,102.156v14.228a8.242,8.242,0,0,0,2.431,5.871L4.8,124.626a8.292,8.292,0,0,0,11.44.272l6.235-5.674a2.89,2.89,0,0,0-.009-4.085,2.817,2.817,0,0,0-1.25-.731,2.889,2.889,0,0,0-.261-3.8,2.859,2.859,0,0,0-1.218-.724l5.688-5.689A2.89,2.89,0,0,0,25.421,100.114Zm-1.056,3.015-9.054,9.054a.755.755,0,1,0,1.067,1.068l1.574-1.574a1.38,1.38,0,1,1,1.952,1.951L18.329,115.2l0,0a.755.755,0,0,0,1.072,1.061l.065-.065a1.4,1.4,0,0,1,1.951.009,1.369,1.369,0,0,1,.025,1.918l-6.209,5.651a6.784,6.784,0,0,1-9.358-.221L3.5,121.188a6.747,6.747,0,0,1-1.989-4.8V102.156a.755.755,0,0,1,.756-.755,1.866,1.866,0,0,1,1.839,1.6l1.19,7.563a.754.754,0,0,0,1.278.417L17.9,99.663a1.38,1.38,0,1,1,1.951,1.952l-7.553,7.549a.755.755,0,0,0,1.067,1.068l9.054-9.054a1.38,1.38,0,1,1,1.952,1.952Z" transform="translate(0.001 -90.844)" fill="#fff"/>
    </g>
  </g>
</svg>
