<svg id="Grupo_24" data-name="Grupo 24" xmlns="http://www.w3.org/2000/svg" width="17.232" height="17.236" viewBox="0 0 17.232 17.236">
  <path id="Trazado_52" data-name="Trazado 52" d="M1860.71,104.9h-4.438a2.28,2.28,0,0,0-2.272,2.272V111.9a2.28,2.28,0,0,0,2.272,2.272h4.438a2.28,2.28,0,0,0,2.272-2.272v-4.731a2.28,2.28,0,0,0-2.272-2.272Zm-2.2,7.516a2.922,2.922,0,1,1,2.922-2.922,2.922,2.922,0,0,1-2.922,2.922Zm2.971-5.2a.692.692,0,1,1,.692-.692A.692.692,0,0,1,1861.478,107.222Z" transform="translate(-1849.877 -100.922)" fill="#f7f8f9"/>
  <path id="Trazado_53" data-name="Trazado 53" d="M1754.114.2a8.618,8.618,0,1,0,8.618,8.618A8.615,8.615,0,0,0,1754.114.2Zm5.308,10.982a3.1,3.1,0,0,1-3.089,3.089H1751.9a3.1,3.1,0,0,1-3.089-3.089V6.451a3.1,3.1,0,0,1,3.089-3.089h4.438a3.1,3.1,0,0,1,3.089,3.089Z" transform="translate(-1745.5 -0.2)" fill="#f7f8f9"/>
  <ellipse id="Elipse_4" data-name="Elipse 4" cx="1.915" cy="1.915" rx="1.915" ry="1.915" transform="translate(6.703 6.661)" fill="#f7f8f9"/>
</svg>
