<svg xmlns="http://www.w3.org/2000/svg" viewBox="0 0 560 120"><title>logos</title><g id="Capa_2" data-name="Capa 2"><g id="Capa_1-2" data-name="Capa 1"><g id="Capa_2-2" data-name="Capa 2"><g id="Capa_1-2-2" data-name="Capa 1-2"><path d="M401.73,55.28a2.3,2.3,0,0,1,0-1,1.58,1.58,0,0,1,1.75-1.3,1.65,1.65,0,0,1,1.79,1.75v1.19H410V54.56c0-4.18-3.77-4.85-6.48-4.85-3.41,0-6.2,1.14-6.71,4.27a6.84,6.84,0,0,0,0,2.59c.84,3.92,7.66,5.06,8.65,7.55a2.44,2.44,0,0,1,0,1.41,1.66,1.66,0,0,1-1.88,1.3,1.71,1.71,0,0,1-1.91-1.75V63.23h-5.15V64.7c0,4.29,3.37,5.59,7,5.59,3.46,0,6.31-1.19,6.78-4.4a9.47,9.47,0,0,0,0-3.14C409.56,58.72,402.28,57.52,401.73,55.28Zm62.43,0a2.54,2.54,0,0,1,0-1,1.58,1.58,0,0,1,1.74-1.28,1.61,1.61,0,0,1,1.76,1.72V56h4.74V54.61c0-4.14-3.71-4.79-6.4-4.79-3.38,0-6.14,1.12-6.65,4.23a6.48,6.48,0,0,0,.05,2.55c.82,3.89,7.58,5,8.56,7.47a2.58,2.58,0,0,1,0,1.4c-.14.64-.57,1.28-1.85,1.28A1.69,1.69,0,0,1,464.21,65V63.19h-5.09v1.47c0,4.24,3.32,5.52,6.9,5.52s6.26-1.17,6.71-4.35a9.11,9.11,0,0,0,0-3.1c-.79-4-8-5.19-8.54-7.41Zm43.59,10.46-4.52-15.45H496.1v19h4.72l-.28-15.95,4.86,15.95h6.83v-19h-4.74ZM417.18,50.33l-3.56,19.19h5.19l2.68-17.77,2.61,17.77h5.15l-3.54-19.19Zm29,0-2.42,15-2.42-15H433.5l-.41,19.19h4.79L438,51.75l3.3,17.77h4.87l3.3-17.77.13,17.77h4.81L454,50.33Zm44.61,0h-4.85v14.2a3.58,3.58,0,0,1,0,.73A1.75,1.75,0,0,1,484,66.65a1.72,1.72,0,0,1-1.83-1.39,3.59,3.59,0,0,1,0-.73V50.33h-4.85V64.09c0,.35,0,1.08,0,1.27.34,3.58,3.16,4.75,6.69,4.75s6.36-1.17,6.7-4.75a9,9,0,0,0,0-1.27Zm33.34,8.42v2.8h2v2.78a3,3,0,0,1-.05.73,2.07,2.07,0,0,1-3.92,0,6.11,6.11,0,0,1-.05-.73V55.55a4,4,0,0,1,.09-.91,2,2,0,0,1,3.83,0,6.27,6.27,0,0,1,0,.74v1.07h4.84v-.63a10.78,10.78,0,0,0,0-1.27c-.36-3.6-3.33-4.74-6.73-4.74s-6.32,1.15-6.74,4.74c0,.33-.1.92-.1,1.27v8.07c0,.43,0,.85.08,1.27.32,3.5,3.35,4.74,6.75,4.74s6.42-1.24,6.75-4.74c0-.65.06-.92.07-1.27V58.75Z" style="fill:#060707"/></g></g><g id="Capa_2-3" data-name="Capa 2"><g id="Capa_1-2-3" data-name="Capa 1-2"><path d="M23.94,55.28a2.46,2.46,0,0,1,0-1A1.59,1.59,0,0,1,25.69,53a1.64,1.64,0,0,1,1.78,1.75v1.19h4.79V54.56c0-4.18-3.77-4.85-6.49-4.85-3.41,0-6.19,1.14-6.7,4.27a6.64,6.64,0,0,0,0,2.59c.83,3.92,7.65,5.06,8.64,7.55a2.44,2.44,0,0,1,0,1.41,1.66,1.66,0,0,1-1.87,1.3A1.71,1.71,0,0,1,24,65.08V63.23H18.84V64.7c0,4.29,3.37,5.59,7,5.59s6.32-1.19,6.78-4.4a9.47,9.47,0,0,0,0-3.14C31.78,58.72,24.49,57.52,23.94,55.28Zm62.43,0a2.54,2.54,0,0,1,0-1,1.57,1.57,0,0,1,1.74-1.28,1.61,1.61,0,0,1,1.76,1.72V56h4.73V54.61c0-4.14-3.71-4.79-6.39-4.79-3.39,0-6.15,1.12-6.65,4.23a6.47,6.47,0,0,0,0,2.55c.83,3.89,7.58,5,8.56,7.47a2.49,2.49,0,0,1,0,1.4,1.63,1.63,0,0,1-1.85,1.28A1.7,1.7,0,0,1,86.42,65V63.19H81.33v1.47c0,4.24,3.32,5.52,6.9,5.52,3.43,0,6.26-1.17,6.72-4.35a9.29,9.29,0,0,0,0-3.1c-.79-4-8-5.19-8.54-7.41ZM130,65.78l-4.52-15.45h-7.12v19H123l-.27-15.95,4.85,15.95h6.83v-19H129.7ZM39.39,50.33,35.84,69.52H41L43.7,51.75l2.62,17.77h5.15L47.93,50.33Zm29,0L66,65.33l-2.42-15H55.71L55.3,69.52h4.8l.13-17.77,3.3,17.77H68.4l3.3-17.77.13,17.77h4.81l-.43-19.19Zm44.61,0h-4.86v14.2a3.58,3.58,0,0,1,0,.73,1.91,1.91,0,0,1-3.68,0,3,3,0,0,1,0-.73V50.33H99.52V64.09c0,.35,0,1.08,0,1.27.34,3.58,3.17,4.75,6.69,4.75s6.36-1.17,6.71-4.75a10.78,10.78,0,0,0,0-1.27Zm33.33,8.42v2.8h2v2.78a3.59,3.59,0,0,1-.05.73,1.8,1.8,0,0,1-2,1.4,1.77,1.77,0,0,1-1.95-1.4,3.64,3.64,0,0,1-.05-.73V55.55a4,4,0,0,1,.08-.91,1.77,1.77,0,0,1,1.91-1.39,1.75,1.75,0,0,1,1.92,1.39,4.71,4.71,0,0,1,.06.74v1.07h4.83v-.63c0-.42,0-.85,0-1.27-.37-3.6-3.34-4.74-6.74-4.74S140,51,139.57,54.55c0,.33-.09.92-.09,1.27v8.07a10.69,10.69,0,0,0,.07,1.27c.32,3.5,3.36,4.74,6.75,4.74s6.43-1.24,6.75-4.74c.06-.65.06-.92.07-1.27V58.75Z" style="fill:#060707"/></g></g><rect width="560" height="120" style="fill:none"/></g></g></svg>