<svg xmlns="http://www.w3.org/2000/svg" width="118.116" height="27.606" viewBox="0 0 118.116 27.606">
  <g id="Capa_2" data-name="Capa 2" transform="translate(0.001 -0.002)">
    <g id="Capa_1" data-name="Capa 1" transform="translate(-0.001 0.002)">
      <path id="Trazado_1" data-name="Trazado 1" d="M42.97,126.624c0,2.467-.384,3.206-1.55,3.206s-1.55-.739-1.55-3.206.384-3.2,1.55-3.2,1.55.739,1.55,3.2m-6.041,0c0,3.5.828,5.775,4.491,5.775s4.489-2.275,4.489-5.775-.826-5.774-4.489-5.774-4.491,2.274-4.491,5.774m-3.189,5.6,2.984-11.135H33.606l-1.552,7.622L30.5,121.088H27.388l2.983,11.135Zm-7.281-7.029H22.322v-1.55h4.549v-2.555h-7.44v11.076h7.44v-2.555H22.322v-1.86h4.136ZM14.1,129.842c-.739,0-1.4-.236-1.4-1.492v-7.263h-2.9v7.489c0,3.072,2.318,3.825,4.3,3.825s4.3-.753,4.3-3.825v-7.489H15.5v7.266c0,1.255-.65,1.492-1.4,1.492M.11,121.086v11.076H3L2.871,126.4l3.1,5.759h2.79V121.086H5.869L6,126.846l-3.1-5.759Z" transform="translate(-0.095 -104.795)" fill="#fff"/>
      <path id="Trazado_2" data-name="Trazado 2" d="M420.9,121.69h-2.894v11.078h7.059v-2.556H420.9Zm-4.229,4.108h-4.136v-1.553h4.549V121.69h-7.44v11.078h7.44v-2.556h-4.549v-1.86h4.136Zm-12.295,4.65c-.737,0-1.4-.236-1.4-1.492V121.69H400.08v7.488c0,3.072,2.32,3.825,4.3,3.825s4.3-.753,4.3-3.825V121.69h-2.894v7.266c0,1.256-.65,1.492-1.4,1.492m-5.262,2.32V121.69h-2.9V125.8h-2.657v-4.105h-2.894V132.77h2.895v-4.419h2.657v4.416Zm-12.93-4.21h-1.447l.723-4.221Zm.444,2.2.413,2.01h3.042l-2.718-11.137h-3.81l-2.72,11.137h3.042l.412-2.01Zm-11.481-6.542h.906c1.447,0,1.831,1.034,1.831,3.013s-.384,3.012-1.831,3.012h-.9Zm.886,8.552c3.883,0,4.815-2.391,4.815-5.539s-.93-5.539-4.815-5.539h-3.781v11.078Zm-9.045-2.32c-.739,0-1.4-.236-1.4-1.492V121.69h-2.895v7.488c0,3.072,2.318,3.825,4.3,3.825s4.3-.753,4.3-3.825V121.69h-2.895v7.266c0,1.256-.65,1.492-1.4,1.492m-10.1-6.218h1.063a1.072,1.072,0,0,1,1.063,1.166,1.058,1.058,0,0,1-1.063,1.166h-1.063Zm0,4.844h1.048c3.088,0,4.151-1.756,4.151-3.692,0-1.905-1.063-3.692-4.151-3.692H354v11.078h2.9Z" transform="translate(-306.969 -105.471)" fill="#fff"/>
      <path id="Trazado_3" data-name="Trazado 3" d="M107.642,76.64a.336.336,0,0,0-.343.343v1.351a.336.336,0,0,0,.343.347h1.345a.336.336,0,0,0,.343-.343V76.982a.336.336,0,0,0-.343-.343Z" transform="translate(-93.043 -66.458)" fill="#fff"/>
      <path id="Trazado_4" data-name="Trazado 4" d="M268.584,66.539a.336.336,0,0,0-.344.343v1.351a.336.336,0,0,0,.344.343h1.351a.336.336,0,0,0,.343-.343V66.882a.336.336,0,0,0-.343-.343Z" transform="translate(-232.602 -57.699)" fill="#fff"/>
      <path id="Trazado_5" data-name="Trazado 5" d="M161.335,76.64a.336.336,0,0,0-.336.343v1.351a.336.336,0,0,0,.336.347h1.35a.336.336,0,0,0,.343-.343V76.982a.336.336,0,0,0-.343-.343Z" transform="translate(-139.609 -66.458)" fill="#fff"/>
      <path id="Trazado_6" data-name="Trazado 6" d="M.342,76.64A.336.336,0,0,0,0,76.982v1.351a.336.336,0,0,0,.343.347H1.693a.336.336,0,0,0,.343-.343V76.982a.336.336,0,0,0-.343-.343Z" transform="translate(0.001 -66.458)" fill="#fff"/>
      <path id="Trazado_7" data-name="Trazado 7" d="M322.234,61.489a.336.336,0,0,0-.344.343v1.351a.336.336,0,0,0,.344.343h1.35a.336.336,0,0,0,.343-.343V61.832a.336.336,0,0,0-.343-.343Z" transform="translate(-279.124 -53.32)" fill="#fff"/>
      <path id="Trazado_8" data-name="Trazado 8" d="M214.942,71.59a.336.336,0,0,0-.343.343v1.351a.336.336,0,0,0,.343.343h1.35a.336.336,0,0,0,.343-.343V71.932a.336.336,0,0,0-.343-.343Z" transform="translate(-186.088 -62.079)" fill="#fff"/>
      <path id="Trazado_9" data-name="Trazado 9" d="M53.992,76.639a.336.336,0,0,0-.343.343v1.351a.336.336,0,0,0,.343.347h1.35a.336.336,0,0,0,.347-.347V76.982a.336.336,0,0,0-.344-.343Z" transform="translate(-46.521 -66.457)" fill="#fff"/>
      <path id="Trazado_10" data-name="Trazado 10" d="M527.251,33.706A3.056,3.056,0,1,1,524.2,30.65a3.056,3.056,0,0,1,3.056,3.056" transform="translate(-451.903 -26.578)" fill="#fff"/>
      <path id="Trazado_11" data-name="Trazado 11" d="M605.584,4.715l4.791,4.3a4.374,4.374,0,0,0,4.352.939L642.851.485A.249.249,0,0,0,642.763,0l-36.779,3.3a.815.815,0,0,0-.4,1.41" transform="translate(-524.898 -0.002)" fill="#fff"/>
      <path id="Trazado_12" data-name="Trazado 12" d="M378.737,46h-1.8a1.139,1.139,0,0,0-1.135,1.135v1.8a1.137,1.137,0,0,0,1.135,1.135h1.8a1.139,1.139,0,0,0,1.136-1.135v-1.8A1.14,1.14,0,0,0,378.737,46" transform="translate(-325.872 -39.889)" fill="#fff"/>
      <path id="Trazado_13" data-name="Trazado 13" d="M447.983,38.32h-1.71a1.707,1.707,0,0,0-1.7,1.7v1.71a1.709,1.709,0,0,0,1.7,1.7h1.71a1.709,1.709,0,0,0,1.7-1.7v-1.71a1.707,1.707,0,0,0-1.7-1.7" transform="translate(-385.506 -33.229)" fill="#fff"/>
    </g>
  </g>
</svg>
