<svg xmlns="http://www.w3.org/2000/svg" width="17.232" height="17.232" viewBox="0 0 17.232 17.232">
  <path id="Trazado_54" data-name="Trazado 54" d="M15.082,2.929a8.618,8.618,0,1,0,2.151,5.7,8.664,8.664,0,0,0-2.151-5.7ZM6.152,12.983a.342.342,0,0,1-.342.342H4.362a.342.342,0,0,1-.342-.342V6.911a.342.342,0,0,1,.342-.342H5.814a.342.342,0,0,1,.342.342ZM5.088,6a1.369,1.369,0,1,1,.974-.4,1.376,1.376,0,0,1-.974.4Zm8.637,7.018a.312.312,0,0,1-.312.312H11.859a.312.312,0,0,1-.312-.312v-2.85c0-.426.125-1.862-1.11-1.862-.958,0-1.151.984-1.193,1.425v3.287a.312.312,0,0,1-.312.312H7.425a.312.312,0,0,1-.312-.312V6.885a.312.312,0,0,1,.312-.312h1.5a.312.312,0,0,1,.312.312v.528a2.141,2.141,0,0,1,2.006-.946c2.489,0,2.474,2.326,2.474,3.606Z" transform="translate(0 -0.011)" fill="#f7f8f9"/>
</svg>
