<svg xmlns="http://www.w3.org/2000/svg" width="17.328" height="17.329" viewBox="0 0 17.328 17.329">
  <path id="Trazado_55" data-name="Trazado 55" d="M1178.092,4.832a8.664,8.664,0,1,0,.41,2.633,8.664,8.664,0,0,0-.41-2.633Zm-2.61-.209a4.575,4.575,0,0,1-.988,1,6.326,6.326,0,0,1-1.224,4.016,6.047,6.047,0,0,1-2.865,2.189.791.791,0,0,0-.224.072c-.182.042-.353.095-.524.137-.023,0-.053-.008-.061.011-.156.023-.308.046-.448.08h-.03c-.027.011-.087-.019-.091.011H1169c-.034.008-.1-.023-.106.019h-.046c-.042.008-.118-.019-.133.011h-.08c-.076.011-.2-.023-.251.015h-.3c-.057-.038-.178-.008-.255-.015h-.061c-.011-.034-.1,0-.133-.011h-.046c0-.038-.076-.011-.1-.019h-.031c0-.03-.053-.008-.076-.011h-.031c0-.034-.049-.008-.072-.019h-.03a.537.537,0,0,0-.148-.03.208.208,0,0,0-.106-.015,8.171,8.171,0,0,1-1.273-.4c-.019,0-.019-.023-.046-.011a.3.3,0,0,0-.164-.08c0-.011-.015-.015-.03-.011a.061.061,0,0,0-.057-.03.254.254,0,0,0-.122-.065c-.114-.1-.346-.167-.4-.27h.072c.038.034.137,0,.2.015h.076a.366.366,0,0,0,.255,0h.072c.061-.008.16.019.2-.015h.015c.034-.008.106.019.118-.015h.031c.027-.008.087.019.091-.011h.015a4.163,4.163,0,0,0,2.052-.889c-.027-.034-.118,0-.167-.011h-.015a3,3,0,0,0-.312-.061c-.019,0-.03-.023-.061-.011a2.269,2.269,0,0,1-1.467-1.379c0-.019,0-.042-.015-.049s.015-.019.027-.027a.539.539,0,0,0,.239.027h.015a1.729,1.729,0,0,0,.692-.057,2.221,2.221,0,0,1-1.752-2.193,2.29,2.29,0,0,0,.958.258,2.338,2.338,0,0,1-.946-1.828,2.43,2.43,0,0,1,.285-1.094,3.474,3.474,0,0,1,.422.429,6.232,6.232,0,0,0,4.134,1.858,2.227,2.227,0,0,1,1.995-2.713,2.271,2.271,0,0,1,1.8.7,4.949,4.949,0,0,0,1.379-.513,2.307,2.307,0,0,1-.931,1.2,4.283,4.283,0,0,0,1.2-.327C1175.592,4.543,1175.512,4.585,1175.482,4.623Z" transform="translate(-1161.174 1.199)" fill="#f7f8f9"/>
</svg>
